<?xml version="1.0" encoding="UTF-8"?>
<svg id="Layer_2" data-name="Layer 2" xmlns="http://www.w3.org/2000/svg" viewBox="0 0 41.84 41.97">
  <defs>
    <style>
      .cls-1 {
        fill: #f7a25b;
      }
    </style>
  </defs>
  <g id="Layer_2-2" data-name="Layer 2">
    <g>
      <path class="cls-1" d="M41.84,21.05c0-9.75-6.71-17.97-15.75-20.28v.93c8.54,2.29,14.84,10.09,14.84,19.34,0,11.04-8.98,20.01-20.01,20.01S.91,32.09,.91,21.05C.91,11.8,7.21,4,15.75,1.71V.77C6.71,3.08,0,11.3,0,21.05c0,11.54,9.39,20.92,20.92,20.92s20.92-9.38,20.92-20.92Z"/>
      <path class="cls-1" d="M20.75,25.76c.11,.05,.24,.05,.35,0,.06-.02,.11-.06,.15-.1l6.8-6.8c.18-.18,.18-.46,0-.64-.18-.18-.46-.18-.64,0l-6.02,6.02V.45c0-.25-.2-.45-.45-.45s-.45,.2-.45,.45V24.25l-6.02-6.02c-.18-.18-.46-.18-.64,0-.09,.09-.13,.2-.13,.32s.04,.23,.13,.32l6.8,6.8s.09,.07,.15,.1Z"/>
    </g>
  </g>
</svg>